# xmcd
#
# Track frame offsets: 
#        150
#        16115
#        50461
#        71632
#        97317
#        135806
#        165438
#        188573
#        215136
#        245135
#        267365
#
# Disc length: 3906 seconds
#
# Revision: 2
# Processed by: cddbd v1.5.2PL0 Copyright (c) Steve Scherf et al.
# Submitted via: ExactAudioCopy v1.0b6
#
DISCID=9a0f400b
DTITLE=热西·才让旦 - 一路莲花
DYEAR=1900
DGENRE=Vajrayana
TTITLE0=莲师祈请文
TTITLE1=遥唤上师
TTITLE2=菩提心
TTITLE3=米拉日巴杂赞歌
TTITLE4=四皈依
TTITLE5=殊胜司德妙法语
TTITLE6=祈愿
TTITLE7=法王如意宝。卓玛次仁祈请文
TTITLE8=药师佛心咒
TTITLE9=观音祈请文
TTITLE10=皈依发心
EXTD=
EXTT0=
EXTT1=
EXTT2=
EXTT3=
EXTT4=
EXTT5=
EXTT6=
EXTT7=
EXTT8=
EXTT9=
EXTT10=
PLAYORDER=
